<?xml version="1.0" standalone="no"?><!DOCTYPE svg PUBLIC "-//W3C//DTD SVG 1.1//EN" "http://www.w3.org/Graphics/SVG/1.1/DTD/svg11.dtd"><svg t="1705721603291" class="icon" viewBox="0 0 1024 1024" version="1.1" xmlns="http://www.w3.org/2000/svg" p-id="844" xmlns:xlink="http://www.w3.org/1999/xlink" width="200" height="200"><path d="M901.12 164.864H123.392c-15.872 0-28.672 12.8-28.672 28.672v636.928c0 15.872 12.8 28.672 28.672 28.672H901.12c15.872 0 28.672-12.8 28.672-28.672V193.536c0-15.872-12.8-28.672-28.672-28.672z m-35.328 211.968H362.496V228.864h503.808v147.968zM362.496 433.664h503.808v156.16H362.496V433.664zM307.2 589.824H158.72V433.664h148.48v156.16z m0-360.96v148.48H158.72v-148.48h148.48z m-148.48 415.744h148.48v150.528H158.72v-150.528z m203.776 150.528v-150.528h503.808v150.528H362.496z" fill="#1456F0" p-id="845"></path></svg>