<?xml version="1.0" standalone="no"?><!DOCTYPE svg PUBLIC "-//W3C//DTD SVG 1.1//EN" "http://www.w3.org/Graphics/SVG/1.1/DTD/svg11.dtd"><svg class="icon" width="200px" height="150.04px" viewBox="0 0 1365 1024" version="1.1" xmlns="http://www.w3.org/2000/svg"><path d="M1115.477333 0l20.992 0.597333c39.168 1.536 62.037333 6.229333 80.896 13.738667l9.130667 4.010667a155.050667 155.050667 0 0 1 77.824 77.824l4.010667 9.130666c7.509333 18.858667 12.202667 41.813333 13.738666 80.896l0.512 20.992 0.085334 11.605334v598.016l-0.597334 20.992c-1.536 39.168-6.229333 62.037333-13.738666 80.896l-4.010667 9.130666-4.437333 8.874667c-14.848 27.818667-36.693333 49.664-64.512 64.512l-8.874667 4.437333-9.130667 4.010667c-18.858667 7.509333-41.813333 12.202667-80.896 13.738667l-20.992 0.512h-5.717333L261.461333 1024h-11.605333l-20.992-0.597333c-39.168-1.536-62.037333-6.229333-80.896-13.738667l-9.130667-4.010667a155.050667 155.050667 0 0 1-77.824-77.824l-4.010666-9.130666c-7.509333-18.858667-12.202667-41.813333-13.738667-80.896L42.666667 816.810667V207.189333l0.512-20.992c1.536-39.168 6.229333-62.037333 13.738666-80.896l4.010667-9.130666a155.050667 155.050667 0 0 1 77.824-77.824l9.130667-4.010667c18.858667-7.509333 41.813333-12.202667 80.896-13.738667L249.856 0h865.621333zM426.666667 704H128v111.36l0.341333 17.749333 0.682667 14.762667c1.365333 20.138667 4.010667 31.744 8.448 41.898667l3.242667 6.656a69.802667 69.802667 0 0 0 29.525333 29.525333l6.656 3.242667c10.154667 4.437333 21.76 7.082667 41.898667 8.448l14.762666 0.682666 17.749334 0.341334L426.666667 938.581333v-234.666666z m810.581333 0h-725.333333v234.581333h602.112l17.749333-0.256 14.762667-0.682666c20.138667-1.365333 31.744-4.010667 41.898666-8.448l6.656-3.242667a69.802667 69.802667 0 0 0 29.525334-29.525333l3.242666-6.656c4.437333-10.154667 7.082667-21.76 8.448-41.898667l0.682667-14.762667 0.341333-17.749333-0.085333-111.36z m-810.666667-298.666667H128v213.333334H426.666667v-213.333334z m810.666667 0h-725.333333v213.333334h725.333333v-213.333334zM251.306667 85.333333l-17.749334 0.341334-14.762666 0.682666c-20.138667 1.365333-31.744 4.010667-41.898667 8.448l-6.656 3.242667a69.802667 69.802667 0 0 0-29.525333 29.525333l-3.242667 6.656c-4.437333 10.154667-7.082667 21.76-8.448 41.898667l-0.682667 14.762667-0.341333 17.749333V320H426.666667V85.333333H251.306667zM512 320h725.248V208.64l-0.256-17.749333-0.682667-14.762667c-1.365333-20.138667-4.010667-31.744-8.448-41.898667l-3.242666-6.656a69.802667 69.802667 0 0 0-29.525334-29.525333l-6.656-3.242667c-10.154667-4.437333-21.76-7.082667-41.898666-8.448l-14.762667-0.682666L1114.026667 85.333333H512v234.666667z" /></svg>